<mxfile host="app.diagrams.net" modified="2021-11-02T12:25:30.389Z" agent="5.0 (Windows NT 10.0; Win64; x64) AppleWebKit/537.36 (KHTML, like Gecko) Chrome/95.0.4638.54 Safari/537.36" etag="RSYO2ujaw91Q7d1kufOS" version="15.6.5" type="github">
  <diagram id="4yTf9Hbqw_3xaQ_xjWHT" name="Page-1">
    <mxGraphModel dx="1422" dy="762" grid="1" gridSize="10" guides="1" tooltips="1" connect="1" arrows="1" fold="1" page="1" pageScale="1" pageWidth="827" pageHeight="1169" math="0" shadow="0">
      <root>
        <mxCell id="0" />
        <mxCell id="1" parent="0" />
        <mxCell id="GFbH4tkMWIb2jGdRXF8A-2" value="Excute-GW" style="rounded=0;whiteSpace=wrap;html=1;fontColor=default;strokeColor=default;fillColor=default;" vertex="1" parent="1">
          <mxGeometry x="280" y="190" width="80" height="360" as="geometry" />
        </mxCell>
        <mxCell id="GFbH4tkMWIb2jGdRXF8A-4" value="golang" style="ellipse;whiteSpace=wrap;html=1;aspect=fixed;fontColor=default;strokeColor=default;fillColor=default;" vertex="1" parent="1">
          <mxGeometry x="450" y="70" width="80" height="80" as="geometry" />
        </mxCell>
        <mxCell id="GFbH4tkMWIb2jGdRXF8A-5" value="javascript" style="ellipse;whiteSpace=wrap;html=1;aspect=fixed;fontColor=default;strokeColor=default;fillColor=default;" vertex="1" parent="1">
          <mxGeometry x="530" y="130" width="80" height="80" as="geometry" />
        </mxCell>
        <mxCell id="GFbH4tkMWIb2jGdRXF8A-6" value="lua" style="ellipse;whiteSpace=wrap;html=1;aspect=fixed;fontColor=default;strokeColor=default;fillColor=default;" vertex="1" parent="1">
          <mxGeometry x="583" y="220" width="80" height="80" as="geometry" />
        </mxCell>
        <mxCell id="GFbH4tkMWIb2jGdRXF8A-7" value="php" style="ellipse;whiteSpace=wrap;html=1;aspect=fixed;fontColor=default;strokeColor=default;fillColor=default;" vertex="1" parent="1">
          <mxGeometry x="600" y="330" width="80" height="80" as="geometry" />
        </mxCell>
        <mxCell id="GFbH4tkMWIb2jGdRXF8A-8" value="sql" style="ellipse;whiteSpace=wrap;html=1;aspect=fixed;fontColor=default;strokeColor=default;fillColor=default;" vertex="1" parent="1">
          <mxGeometry x="583" y="430" width="80" height="80" as="geometry" />
        </mxCell>
        <mxCell id="GFbH4tkMWIb2jGdRXF8A-9" value="rule" style="ellipse;whiteSpace=wrap;html=1;aspect=fixed;fontColor=default;strokeColor=default;fillColor=default;" vertex="1" parent="1">
          <mxGeometry x="550" y="520" width="80" height="80" as="geometry" />
        </mxCell>
        <mxCell id="GFbH4tkMWIb2jGdRXF8A-10" value="dsl" style="ellipse;whiteSpace=wrap;html=1;aspect=fixed;fontColor=default;strokeColor=default;fillColor=default;" vertex="1" parent="1">
          <mxGeometry x="480" y="610" width="80" height="80" as="geometry" />
        </mxCell>
        <mxCell id="GFbH4tkMWIb2jGdRXF8A-11" value="pb-generator" style="ellipse;whiteSpace=wrap;html=1;aspect=fixed;fontColor=default;strokeColor=default;fillColor=default;" vertex="1" parent="1">
          <mxGeometry x="380" y="660" width="80" height="80" as="geometry" />
        </mxCell>
      </root>
    </mxGraphModel>
  </diagram>
</mxfile>
